<?xml version="1.0" encoding="utf-8"?>
<!-- Generator: Adobe Illustrator 21.0.2, SVG Export Plug-In . SVG Version: 6.00 Build 0)  -->
<svg version="1.1" xmlns="http://www.w3.org/2000/svg" xmlns:xlink="http://www.w3.org/1999/xlink" x="0px" y="0px"
	 viewBox="0 0 5000 2310" style="enable-background:new 0 0 5000 2310;" xml:space="preserve">
<style type="text/css">
	.st0{fill:#3A7BFA;}
	.st1{fill:#FFC300;}
	.st2{fill:#FFFFFF;}
</style>
<g id="Time_hero">
	<g>
		<g>
			<path class="st0" d="M2035.2,1386.7h198.3v42.1h-73.9v199.4h-50.5v-199.4h-73.9V1386.7z"/>
		</g>
		<g>
			<path class="st0" d="M2425.9,1628.1h-51v-241.5h51V1628.1z"/>
		</g>
		<g>
			<path class="st0" d="M2630.7,1386.7l66.5,162.2h2.8l66.5-162.2h63v241.5H2780V1471h-2l-62.5,156h-33.7l-62.5-156.6h-2v157.8
				h-49.5v-241.5H2630.7z"/>
		</g>
		<g>
			<path class="st0" d="M2974.5,1386.7h162.7v42.1h-111.6v57.5h103.3v42.1h-103.3v57.6h112.1v42.1h-163.2V1386.7z"/>
		</g>
		<g>
			<path class="st0" d="M3454.5,1386.7h51v99.6h103.6v-99.6h50.9v241.5h-50.9v-99.7h-103.6v99.7h-51V1386.7z"/>
		</g>
		<g>
			<path class="st0" d="M3802.1,1386.7h162.7v42.1h-111.6v57.5h103.3v42.1h-103.3v57.6h112.1v42.1h-163.2V1386.7z"/>
		</g>
		<g>
			<path class="st0" d="M4105.4,1386.7h95.3c54.8,0,86.5,30.9,86.5,78.9c0,33-15.2,56.9-42.7,68.7l51.3,93.8h-56.3l-45.7-85.6h-37.3
				v85.6h-51.1V1386.7z M4191.1,1501.5c29.2,0,43.5-12,43.5-36c0-24.1-14.3-37.1-43.7-37.1h-34.4v73.1H4191.1z"/>
		</g>
		<g>
			<path class="st0" d="M4531.9,1631.4c-64.4,0-113.1-45.4-113.1-124c0-79,48.7-124,113.1-124c64,0,113.1,45,113.1,124
				S4596,1631.4,4531.9,1631.4z M4531.9,1428.5c-37.1,0-61.3,27.7-61.3,78.9s24.2,78.9,61.3,78.9c37,0,61.3-27.7,61.3-78.9
				S4569,1428.5,4531.9,1428.5z"/>
		</g>
	</g>
</g>
<g id="Screen">
	<g>
		<g>
			<path class="st0" d="M2230.1,856.6c-50,0-77.6,22.9-77.6,54c-0.7,34.6,34.4,50.2,76.4,59.9l43.4,10.4
				c83.9,18.9,144.5,61.5,144.7,141.9c-0.2,88.4-69.5,144.7-187.4,144.7c-117.2,0-191.9-54-194.5-158.4h98.8
				c3.3,48.3,41.5,72.8,94.5,72.8c51.8,0,85.3-24,85.5-59.4c-0.2-32.5-29.5-47.6-82-60.3l-52.6-13.2
				c-81.6-19.6-131.8-60.3-131.5-131.5c-0.5-87.7,77.1-146.1,182.9-146.1c107.5,0,178.2,59.4,179.6,145.4h-97.8
				C2308.8,878.8,2278.9,856.6,2230.1,856.6z"/>
		</g>
		<g>
			<path class="st0" d="M2807.9,946.9c-7.8-53-48.1-85.3-103.9-85.3c-74.7,0-123.8,57.3-123.8,157.7c0,103.2,49.7,157.7,123,157.7
				c54.5,0,95-29.7,104.7-81.3l103.3,0.5c-11.1,88.9-85.8,171.1-209.6,171.1c-129.2,0-224.9-90.5-224.9-248
				c0-157.9,97.4-248,224.9-248c111.7,0,196.1,64.1,209.6,175.6H2807.9z"/>
		</g>
		<g>
			<path class="st0" d="M2984.2,777.9h190.5c109.6,0,173,61.8,173,157.7c0,66-30.4,113.9-85.3,137.4l102.5,187.6h-112.7l-91.5-171.1
				h-74.5v171.1h-102.1V777.9z M3155.6,1007.5c58.5,0,87-24,87-71.9c0-48.1-28.5-74.2-87.4-74.2h-68.8v146.1H3155.6z"/>
		</g>
		<g>
			<path class="st0" d="M3419.6,777.9h325.3v84.2h-223.3v115h206.5v84.2h-206.5v115.3h224.2v84.2h-326.2V777.9z"/>
		</g>
		<g>
			<path class="st0" d="M3826,777.9h325.3v84.2h-223.2v115h206.5v84.2h-206.5v115.3h224.2v84.2H3826V777.9z"/>
		</g>
		<g>
			<path class="st0" d="M4636.2,1260.7h-88.2l-210-303.8h-3.5v303.8h-102.1V777.9h89.6l208.4,303.6h4.2V777.9h101.6V1260.7z"/>
		</g>
	</g>
</g>
<g id="shield_logo">
	<g>
		<g>
			<g>
				<path class="st0" d="M1842.6,1182.7c-56,255.7-216.6,601.5-663.6,795.8c-20.4,8.8-42.3,13.3-64.6,13.3
					c-22.5,0-44.2-4.4-64.8-13.3c-446.8-194.3-607.6-540.1-663.6-795.8c-59.6-271.5-15.2-498.4-13.3-507.9l16-78.9l78.5-17.9
					c137.6-31.1,397.4-150.3,577.9-242.9c21.3-10.9,45.2-16.8,69.2-16.8c24,0,47.8,5.9,69,16.8c65.5,33.5,400.5,202.9,577.9,242.9
					l78.7,17.9l15.8,78.9C1857.7,684.3,1902.2,911.2,1842.6,1182.7z"/>
			</g>
		</g>
		<g>
			<path class="st1" d="M1114.3,1928.6c-13.5,0-27-2.7-39.5-8.2c-422.5-183.6-574.2-509.9-627.2-751.3
				c-56.7-258.9-14.8-472.9-13-481.9l7.8-38.8l38.7-8.7c185-41.8,526.3-214.3,592.8-248.5c25.3-13,55.5-13,80.7,0
				c66.5,34.1,407.8,206.6,592.8,248.5l38.7,8.7l7.8,38.8c1.8,9,43.7,223-13,481.9c-52.9,241.4-204.7,567.7-627.2,751.3
				C1141.3,1925.9,1127.8,1928.6,1114.3,1928.6z M549,748.6c-8.5,68.5-20,223.8,19.1,398.5c68.2,305.2,251.9,526.2,546.2,656.9
				c294.3-130.8,478-351.7,546.2-656.9c39-174.7,27.6-330,19.1-398.5c-186.7-52.4-460.6-187.3-565.3-240.6
				C1009.6,561.3,735.7,696.3,549,748.6z"/>
		</g>
		<g>
			<polygon class="st2" points="1235.8,781 1235.8,1064.9 992.7,1064.9 992.7,781 809.1,855.4 809.1,1138.9 809.1,1422.4 
				992.7,1496.8 992.7,1212.8 1235.8,1212.8 1235.8,1496.8 1419.4,1422.4 1419.4,1138.9 1419.4,855.4 			"/>
		</g>
	</g>
</g>
</svg>
