<?xml version="1.0" encoding="utf-8"?>
<!-- Generator: Adobe Illustrator 21.0.2, SVG Export Plug-In . SVG Version: 6.00 Build 0)  -->
<svg version="1.1" id="shield_logo" xmlns="http://www.w3.org/2000/svg" xmlns:xlink="http://www.w3.org/1999/xlink" x="0px"
	 y="0px" viewBox="0 0 5000 5000" style="enable-background:new 0 0 5000 5000;" xml:space="preserve">
<style type="text/css">
	.st0{fill:#3A7BFA;}
	.st1{fill:#FFC300;}
	.st2{fill:#FFFFFF;}
</style>
<g>
	<g>
		<g>
			<path class="st0" d="M4053.8,2559c-119.4,545.5-462,1283.2-1415.7,1697.7c-43.5,18.9-90.2,28.3-137.8,28.3
				c-48,0-94.3-9.4-138.3-28.3C1408.7,3842.3,1065.7,3104.6,946.2,2559c-127.1-579.2-32.3-1063.2-28.3-1083.4l34.1-168.4l167.5-38.2
				c293.6-66.5,847.7-320.6,1233-518.1c45.4-23.3,96.5-35.9,147.7-35.9s101.9,12.6,147.3,35.9c139.7,71.4,854.5,432.8,1233,518.1
				l167.9,38.2l33.7,168.4C4086.1,1495.8,4180.8,1979.8,4053.8,2559z"/>
		</g>
	</g>
	<g>
		<path class="st1" d="M2500,4150.4c-28.8,0-57.6-5.8-84.4-17.5c-901.3-391.6-1225.1-1087.8-1338-1602.8
			c-121.1-552.3-31.6-1008.9-27.7-1028l16.7-82.9l82.5-18.7c394.7-89.3,1122.8-457.2,1264.7-530.1c53.9-27.7,118.3-27.7,172.2,0
			c141.9,72.8,870,440.8,1264.7,530.1l82.5,18.7l16.7,82.9c3.9,19.2,93.3,475.7-27.7,1028c-112.9,515-436.6,1211.1-1337.9,1602.8
			C2557.6,4144.6,2528.8,4150.4,2500,4150.4z M1294.1,1633.1c-18.2,146.1-42.6,477.4,40.7,850.2
			c145.4,651.1,537.4,1122.5,1165.2,1401.5c627.8-278.9,1019.8-750.4,1165.2-1401.5c83.3-372.8,58.9-704,40.7-850.2
			c-398.3-111.8-982.6-399.6-1205.9-513.2C2276.7,1233.5,1692.4,1521.3,1294.1,1633.1z"/>
	</g>
	<g>
		<polygon class="st2" points="2759.3,1702.1 2759.3,2307.9 2240.7,2307.9 2240.7,1702.1 1848.9,1860.8 1848.9,2465.6 
			1848.9,3070.4 2240.7,3229.1 2240.7,2623.4 2759.3,2623.4 2759.3,3229.1 3151.1,3070.4 3151.1,2465.6 3151.1,1860.8 		"/>
	</g>
</g>
</svg>
